<?xml version="1.0" encoding="utf-8"?>
<!-- Generator: Adobe Illustrator 25.0.0, SVG Export Plug-In . SVG Version: 6.00 Build 0)  -->
<svg version="1.1" xmlns="http://www.w3.org/2000/svg" xmlns:xlink="http://www.w3.org/1999/xlink" x="0px" y="0px"
	 viewBox="0 0 256.28 230.75" style="enable-background:new 0 0 256.28 230.75;" xml:space="preserve">
<style type="text/css">
	.st0{fill:#FFC89E;}
	.st1{fill:#D7E4F4;}
	.st2{fill:#FFFFFF;}
	.st3{fill:#070A17;}
	.st4{fill:#FF7E64;}
	.st5{fill:#99CDE0;}
	.st6{fill:#69B4E3;}
	.st7{fill:#C7E8F2;}
	.st8{fill:#2479A6;}
	.st9{fill:none;}
</style>
<g id="Layer_2">
</g>
<g id="_x3C_Layer_x3E_">
	<g>
		<path class="st6" d="M170.64,116.6c5.01,0.15,9.51-2.01,12.54-5.49c0.64-0.73,1.56-1.15,2.53-1.15h0.07
			c1.96,0,3.55,1.58,3.55,3.54v20.63h52.24c8.12,0,14.71-6.59,14.71-14.71V67.17h-66.95V87.8c0,1.95-1.58,3.54-3.54,3.54l0,0
			c-1.03,0-2-0.46-2.68-1.23c-2.92-3.32-7.19-5.42-11.96-5.42c-9.07,0-16.38,7.57-15.94,16.74
			C155.59,109.64,162.42,116.35,170.64,116.6z"/>
		<path class="st3" d="M238.76,85.63c0.15-4.99-1.99-9.47-5.44-12.49c-0.76-0.67-1.21-1.63-1.21-2.65v0c0-1.95,1.58-3.54,3.54-3.54
			h20.63V14.71c0-8.12-6.59-14.71-14.71-14.71h-52.24v66.95h20.63c1.95,0,3.54,1.58,3.54,3.54v0c0,1.03-0.46,2-1.23,2.68
			c-3.32,2.92-5.42,7.19-5.42,11.96c0,9.07,7.57,16.38,16.74,15.94C231.8,100.68,238.5,93.86,238.76,85.63z"/>
		<path class="st1" d="M208.01,17.52c-5.01-0.15-9.51,2.01-12.54,5.49c-0.64,0.73-1.56,1.15-2.53,1.15h-0.07
			c-1.96,0-3.55-1.58-3.55-3.54V0h-52.24c-8.12,0-14.71,6.59-14.71,14.71v52.24h21.82c1.36-0.49,2.34-1.78,2.34-3.32v0
			c0-1.02-0.44-1.98-1.21-2.65c-3.45-3.03-5.59-7.51-5.44-12.49c0.25-8.22,6.96-15.05,15.18-15.44c9.17-0.44,16.74,6.87,16.74,15.94
			c0,4.71-2.05,8.94-5.3,11.86c-0.67,0.61-1.2,1.39-1.32,2.29c-0.24,1.74,0.8,3.27,2.31,3.81h21.82V46.5c0-1.54,0.91-3.01,2.37-3.51
			c1.44-0.5,2.91-0.03,3.84,1.03c2.92,3.32,7.19,5.42,11.96,5.42c9.07,0,16.38-7.57,15.94-16.74
			C223.06,24.48,216.23,17.78,208.01,17.52z"/>
		<path class="st8" d="M139.9,48.49c-0.15,5.01,2.01,9.51,5.49,12.54c0.73,0.64,1.15,1.56,1.15,2.53v0.07
			c0,1.96-1.58,3.55-3.54,3.55h-20.63v52.24c0,8.12,6.59,14.71,14.71,14.71h52.24V67.17H168.7c-1.95,0-3.54-1.58-3.54-3.54l0,0
			c0-1.03,0.46-2,1.23-2.68c3.32-2.92,5.42-7.19,5.42-11.96c0-9.07-7.57-16.38-16.74-15.94C146.86,33.44,140.15,40.27,139.9,48.49z"
			/>
		<path class="st6" d="M0,230.75l5.17-47.17c1.73-15.82,11.96-29.43,26.67-35.51l51.22-16.16c8.73-2.75,18.27-0.54,24.89,5.78
			l8.33,7.94l62.3,58.19l0,0c0,14.35-11.58,26-25.93,26.08h-8.33L0,230.75z"/>
		<g>
			<path class="st4" d="M205.29,143.89l23.85-14.85c1.98-1.23,2.5-3.89,1.12-5.78l0,0c-2.15-2.94-5.92-4.21-9.42-3.16l-9.56,2.86
				L205.29,143.89z"/>
			<g>
				<path class="st0" d="M213.69,130.57l6.91-33.21c0.38-1.84-0.97-3.58-2.85-3.66l-1.83-0.08c-3.48-0.15-6.7,1.81-8.17,4.97
					l-3.97,8.52l-1.02,0.47l0.86-11.34c0.19-2.47-1.67-4.65-4.14-4.8c-3.77-0.24-7.08,2.29-7.96,5.85
					c-0.12-2.16-1.81-3.96-4.03-4.12c-3.81-0.29-7.17,2.25-8.06,5.84c-0.12-2.16-1.81-3.96-4.03-4.12
					c-4.26-0.32-7.97,2.86-8.29,7.12l-1.75,22.99l-3.51,1.63c-4.18,1.94-7.28,5.63-8.48,10.08l-17.27,63.9l7.08,9.28
					c9.82,12.87,30.31,8.89,34.32-6.8c0.03-0.11,0.06-0.23,0.09-0.34l12.39-49.53l2.81-0.72
					C203.36,149.76,211.47,141.26,213.69,130.57z"/>
				<g>
					<path class="st4" d="M189.19,127.23c-0.03,0-0.05,0-0.08,0c-0.55-0.04-0.96-0.52-0.92-1.07l2.1-27.66
						c0.04-0.55,0.51-0.97,1.07-0.92c0.55,0.04,0.96,0.52,0.92,1.07l-2.1,27.66C190.15,126.83,189.71,127.23,189.19,127.23z"/>
				</g>
				<g>
					<path class="st4" d="M201.4,126.56c-0.03,0-0.05,0-0.08,0c-0.55-0.04-0.96-0.52-0.92-1.07l2.24-29.4
						c0.04-0.55,0.5-0.96,1.07-0.92c0.55,0.04,0.96,0.52,0.92,1.07l-2.24,29.4C202.35,126.16,201.91,126.56,201.4,126.56z"/>
				</g>
				<g>
					<path class="st4" d="M177.32,126.87c-0.03,0-0.05,0-0.08,0c-0.55-0.04-0.96-0.52-0.92-1.07l2.24-29.4
						c0.04-0.55,0.51-0.96,1.07-0.92c0.55,0.04,0.96,0.52,0.92,1.07l-2.24,29.4C178.28,126.47,177.84,126.87,177.32,126.87z"/>
				</g>
			</g>
		</g>
		<g>
			<path class="st7" d="M143.66,230.75c-0.3,0-0.6-0.14-0.79-0.39l-38.91-50.88c-0.34-0.44-0.25-1.07,0.19-1.4
				c0.44-0.34,1.07-0.25,1.4,0.19l38.91,50.88c0.34,0.44,0.25,1.07-0.19,1.4C144.08,230.69,143.87,230.75,143.66,230.75z"/>
		</g>
		<g>
			<path class="st7" d="M41.9,230.75c-0.55,0-1-0.45-1-1v-26.94c0-0.55,0.45-1,1-1s1,0.45,1,1v26.94
				C42.9,230.31,42.45,230.75,41.9,230.75z"/>
		</g>
		<g>
			<path class="st3" d="M65.01,109.62l-11,2.62c-12.65,3.01-25.45-4.87-28.47-17.52l-1.04-4.36c-3.77-15.83,6.1-31.87,21.93-35.64
				l2.24,4.07c9.93-2.36,19.98,3.82,22.34,13.75l4.69,19.69C77.55,99.95,72.73,107.78,65.01,109.62z"/>
			
				<ellipse transform="matrix(0.0465 -0.9989 0.9989 0.0465 -35.0942 135.6003)" class="st3" cx="53.48" cy="86.18" rx="24.92" ry="26.54"/>
			<path class="st3" d="M75.45,129.77c-7.78-2.16-14.29-8.18-16.7-16.5l-2.22-7.66l20.31-5.91L75.45,129.77z"/>
			<path class="st3" d="M46.64,89.46c-1.28-8.41,2.61-17.11,9.9-20.86h0c4.54-2.33,9.5-2.27,13.74-0.29
				c-2.33,0.12-8.85,0.83-10.32,5.05C58.16,78.52,57.5,88.5,46.64,89.46z"/>
			
				<ellipse transform="matrix(0.0629 -0.998 0.998 0.0629 -2.1804 136.8581)" class="st3" cx="71.79" cy="69.59" rx="11.87" ry="11.87"/>
			<path class="st3" d="M42.69,59.39C30.58,63.95,23.35,76.7,25.94,89.62c3.26,1.2,6.95,1.48,10.64,0.6
				c9.6-2.29,15.62-11.54,13.44-20.68C48.99,65.19,46.28,61.66,42.69,59.39z"/>
			<path class="st3" d="M61.36,63.37c1.52,6.38-2.42,12.77-8.79,14.29c-6.38,1.52-12.77-2.42-14.29-8.79
				c-1.52-6.38,2.42-12.77,8.79-14.29C53.44,53.06,59.84,57,61.36,63.37z"/>
			<path class="st3" d="M74.95,60.74c1.56,6.56-2.49,13.14-9.05,14.7c-6.56,1.56-13.14-2.49-14.7-9.05
				c-1.56-6.56,2.49-13.14,9.05-14.7C66.81,50.14,73.39,54.19,74.95,60.74z"/>
			<g>
				<path class="st3" d="M32.14,71.72c-0.35,0-0.69-0.19-0.88-0.52c-1.55-2.81-5.41-2.72-5.44-2.72c-0.54,0-1.01-0.41-1.03-0.97
					c-0.02-0.55,0.41-1.01,0.96-1.03c0.2-0.01,5.11-0.14,7.26,3.75c0.27,0.48,0.09,1.09-0.39,1.36
					C32.47,71.68,32.3,71.72,32.14,71.72z"/>
			</g>
			<g>
				<path class="st3" d="M32.53,71.33c-0.11,0-0.22-0.02-0.33-0.06c-4.2-1.47-4.89-6.32-4.92-6.52c-0.07-0.55,0.31-1.05,0.86-1.12
					c0.55-0.07,1.05,0.31,1.12,0.86c0.01,0.06,0.58,3.85,3.6,4.9c0.52,0.18,0.8,0.75,0.62,1.27C33.33,71.07,32.95,71.33,32.53,71.33
					z"/>
			</g>
			<path class="st0" d="M78.6,133.03l-3.31,0.13l0.61-13.08c1.58-0.26,3.15-0.7,4.67-1.4c9.27-4.21,13.37-15.14,9.16-24.42
				l-2.94-6.47c1.73-1.03,2.47-3.2,1.63-5.08l0,0c-0.85-1.9-2.99-2.8-4.92-2.17l-0.84-1.85c-4.21-9.27-15.14-13.37-24.42-9.16l0,0
				c-7.82,3.55-11.96,11.89-10.54,19.97c-3.39,0.83-5.82,3.97-5.64,7.58c0.16,3.15,2.26,5.74,5.08,6.68l-1.7,36.54l-7.04,5.32
				c1.97,6.72,7.69,13.28,15.88,17.23c13.02,6.28,27.33,3.58,31.96-6.02C89.86,149.32,86.47,139.82,78.6,133.03z"/>
			<g>
				<path class="st4" d="M50.73,99.69c-0.48,0-0.9-0.34-0.98-0.83c-0.41-2.36-2.62-2.87-2.71-2.89c-0.54-0.12-0.88-0.65-0.77-1.18
					c0.11-0.54,0.64-0.88,1.17-0.77c0.15,0.03,3.62,0.78,4.28,4.5c0.09,0.54-0.27,1.06-0.81,1.16
					C50.85,99.69,50.79,99.69,50.73,99.69z"/>
			</g>
			<g>
				<path class="st4" d="M80.94,93.4c-1.25,0-2.74-0.49-4.32-1.92c-0.41-0.37-0.44-1-0.07-1.41c0.37-0.41,1.01-0.44,1.41-0.07
					c2.8,2.55,4.61,0.85,4.69,0.77c0.4-0.39,1.03-0.38,1.41,0.02c0.39,0.4,0.38,1.03-0.02,1.41C83.47,92.79,82.35,93.4,80.94,93.4z"
					/>
			</g>
			<path class="st3" d="M79.07,82.11c0.27,1-0.17,1.99-1,2.21c-0.82,0.23-1.71-0.4-1.99-1.39c-0.27-1,0.17-1.99,1-2.21
				C77.9,80.49,78.79,81.12,79.07,82.11z"/>
			<path class="st3" d="M75.55,76.48c0.44,0.48-0.28,1.84-1.61,3.05c-1.32,1.21-2.75,1.8-3.19,1.32c-0.44-0.48,0.28-1.84,1.61-3.05
				C73.69,76.59,75.11,76,75.55,76.48z"/>
			<path class="st3" d="M52.61,72.22c-7.76,2.13-12.96,9.6-12.1,17.74c1.95,0.93,4.21,1.32,6.55,0.98
				c6.07-0.86,10.33-6.25,9.51-12.03C56.17,76.17,54.7,73.83,52.61,72.22z"/>
			<g>
				<path class="st4" d="M73.34,121.07c-7.52,0-14.57-4.43-17.74-11.4c-0.23-0.5-0.01-1.1,0.5-1.32c0.51-0.23,1.1-0.01,1.32,0.5
					c3.17,6.98,10.69,11.12,18.28,10.06c0.54-0.08,1.05,0.31,1.13,0.85c0.08,0.55-0.31,1.05-0.85,1.13
					C75.09,121.02,74.21,121.07,73.34,121.07z"/>
			</g>
		</g>
	</g>
</g>
</svg>
