<?xml version="1.0" encoding="utf-8"?>
<!-- Generator: Adobe Illustrator 25.0.0, SVG Export Plug-In . SVG Version: 6.00 Build 0)  -->
<svg version="1.1" xmlns="http://www.w3.org/2000/svg" xmlns:xlink="http://www.w3.org/1999/xlink" x="0px" y="0px"
	 viewBox="0 0 295.74 179.03" style="enable-background:new 0 0 295.74 179.03;" xml:space="preserve">
<style type="text/css">
	.st0{fill:#FFC89E;}
	.st1{fill:#D7E4F4;}
	.st2{fill:#FFFFFF;}
	.st3{fill:#070A17;}
	.st4{fill:#FF7E64;}
	.st5{fill:#99CDE0;}
	.st6{fill:#69B4E3;}
	.st7{fill:#C7E8F2;}
	.st8{fill:#2479A6;}
	.st9{fill:none;}
</style>
<g id="Layer_2">
</g>
<g id="_x3C_Layer_x3E_">
	<g>
		<path class="st0" d="M36.12,66.9l32.06-24.46c1.56-1.19,3.79,0,3.67,1.96c-0.17,2.7-1.25,5.26-3.06,7.26L45.83,76.95
			c-2.67,2.94-3.61,7.05-2.49,10.85c-1.11-0.1-2.22-0.27-3.34-0.49c-4.35-0.88-8.31-2.61-11.75-5l0.79-4.09
			C29.92,73.7,32.44,69.67,36.12,66.9z"/>
		<path class="st0" d="M31.5,77.1l35.9-18.38c1.74-0.89,3.73,0.68,3.27,2.58c-0.64,2.63-2.16,4.96-4.31,6.6L39.27,88.71
			C36.12,91.13,27.39,79.17,31.5,77.1z"/>
		<path class="st0" d="M36.97,86.6l26.66-13.65c1.3-0.66,2.77,0.5,2.43,1.92c-0.48,1.95-1.61,3.68-3.2,4.9L42.74,95.23
			C40.4,97.02,33.92,88.13,36.97,86.6z"/>
		<g>
			
				<rect x="41.78" y="68.39" transform="matrix(0.7425 -0.6698 0.6698 0.7425 -33.4394 51.78)" class="st4" width="17.71" height="2"/>
		</g>
		<g>
			
				<rect x="42.24" y="80.5" transform="matrix(0.7695 -0.6387 0.6387 0.7695 -41.0386 49.2907)" class="st4" width="11.04" height="2"/>
		</g>
		<path class="st0" d="M256.3,66.9l-32.06-24.46c-1.56-1.19-3.79,0-3.67,1.96c0.17,2.7,1.25,5.26,3.06,7.26l22.96,25.29
			c2.67,2.94,3.61,7.05,2.49,10.85c1.11-0.1,2.22-0.27,3.34-0.49c4.35-0.88,8.31-2.61,11.75-5l-0.79-4.09
			C262.5,73.7,259.98,69.67,256.3,66.9z"/>
		<path class="st0" d="M260.92,77.1l-35.9-18.38c-1.74-0.89-3.73,0.68-3.27,2.58c0.64,2.63,2.16,4.96,4.31,6.6l27.09,20.81
			C256.3,91.13,265.03,79.17,260.92,77.1z"/>
		<path class="st0" d="M255.45,86.6l-26.66-13.65c-1.3-0.66-2.77,0.5-2.43,1.92c0.48,1.95,1.61,3.68,3.2,4.9l20.12,15.46
			C252.02,97.02,258.5,88.13,255.45,86.6z"/>
		<path class="st3" d="M198.07,15.37c-0.02,4.55-2.21,8.57-5.56,11.13c-0.97,0.76-1.6,1.92-1.61,3.25
			c-0.01,2.16,1.62,3.92,3.71,4.16l32.28,0.17l-0.46,86.07l-86.07-0.46l0.18-33.42c0.08-0.19,0.17-0.35,0.26-0.52
			c0.01-0.02,0.03-0.04,0.03-0.06c0.11-0.16,0.21-0.31,0.33-0.46c0-0.01,0.02-0.02,0.03-0.04c0.22-0.26,0.47-0.49,0.74-0.69
			c0.05-0.03,0.09-0.08,0.14-0.1c0.09-0.07,0.2-0.12,0.3-0.18c0.1-0.06,0.22-0.12,0.33-0.17c0.09-0.05,0.19-0.08,0.28-0.11
			c0.15-0.05,0.29-0.09,0.44-0.13c0.08-0.02,0.16-0.04,0.24-0.05c0.24-0.04,0.48-0.07,0.73-0.07c1.33,0.01,2.49,0.65,3.25,1.61
			c2.56,3.35,6.58,5.53,11.13,5.56c7.79,0.04,14.15-6.25,14.19-14.04c0.04-7.8-6.24-14.15-14.04-14.19
			c-4.55-0.02-8.59,2.11-11.19,5.44c-0.77,0.96-1.94,1.58-3.26,1.57c-0.25,0-0.49-0.03-0.73-0.08c-0.08-0.01-0.16-0.03-0.24-0.06
			c-0.15-0.04-0.3-0.08-0.44-0.13c-0.09-0.04-0.18-0.08-0.28-0.12c-0.11-0.05-0.23-0.11-0.33-0.17c-0.1-0.05-0.21-0.11-0.3-0.17
			c-0.05-0.04-0.09-0.07-0.14-0.1c-0.27-0.21-0.52-0.44-0.73-0.7c0-0.02-0.02-0.02-0.03-0.04c-0.12-0.14-0.22-0.3-0.31-0.46
			c-0.02-0.02-0.03-0.04-0.04-0.07c-0.1-0.17-0.18-0.34-0.26-0.52l0.18-33.42l32.28,0.17c2.1-0.22,3.75-1.97,3.76-4.12
			c0.01-1.32-0.62-2.49-1.58-3.26c-3.32-2.61-5.46-6.65-5.44-11.2c0.04-7.79,6.4-14.08,14.19-14.04
			C191.83,1.23,198.11,7.59,198.07,15.37z"/>
		<path class="st6" d="M140.44,120.2V87.68h0c0.16-2.19,1.98-3.93,4.22-3.93c1.33,0,2.52,0.64,3.29,1.61
			c2.61,3.38,6.7,5.57,11.31,5.57c7.88,0,14.28-6.4,14.28-14.29c0-7.89-6.4-14.28-14.28-14.28c-4.6,0-8.69,2.18-11.31,5.56
			c-0.77,0.97-1.95,1.61-3.29,1.61c-2.24,0-4.06-1.73-4.22-3.93h0V33.07h-32.66c-2.13-0.23-3.8-2-3.8-4.2
			c0-1.34,0.64-2.51,1.61-3.29c3.38-2.61,5.57-6.7,5.57-11.3c0-7.89-6.4-14.29-14.29-14.29c-7.89,0-14.29,6.39-14.29,14.29
			c0,4.6,2.18,8.68,5.56,11.3c0.97,0.77,1.61,1.95,1.61,3.29c0,2.19-1.67,3.97-3.79,4.2H53.3v87.13H140.44z"/>
		<path class="st0" d="M295.74,123.03l-32.01-8.74l2.61-32.45c0.42-5.22-1.11-10.4-4.29-14.55l-27.62-36.56
			c-1.34-1.78-4.15-1.15-4.62,1.02c-0.64,3-0.24,6.14,1.14,8.88l17.41,34.69c2.05,4.09,1.79,8.96-0.68,12.81
			c-3.99,6.19-12.33,7.82-18.34,3.57l-15.76-11.11c-4.62-3.26-10.52-4.11-15.88-2.29c-1.75,0.59-2.27,2.82-0.96,4.12l9.18,9.21
			c7.13,7.16,12.31,16.03,15.03,25.76l0,0c3.25,11.64,10.74,21.65,21,28.05l53.8,33.59V123.03z"/>
		<g>
			<path class="st4" d="M244.53,92.73l-1.11-1.66c1.37-0.91,2.52-2.08,3.42-3.48c2.28-3.53,2.52-8.06,0.63-11.82L235.09,51.1
				l1.79-0.9l12.38,24.66c2.2,4.39,1.92,9.68-0.74,13.8C247.47,90.3,246.13,91.66,244.53,92.73z"/>
		</g>
		<g>
			
				<rect x="240.79" y="60.53" transform="matrix(0.6697 -0.7426 0.7426 0.6697 28.3297 202.4723)" class="st4" width="2" height="17.71"/>
		</g>
		<g>
			
				<rect x="243.66" y="75.97" transform="matrix(0.6387 -0.7695 0.7695 0.6387 25.6936 217.71)" class="st4" width="2" height="11.04"/>
		</g>
		<path class="st0" d="M94.73,78.3c-5.35-1.82-11.26-0.97-15.88,2.29L63.09,91.7c-6.02,4.24-14.36,2.62-18.34-3.57
			c-2.48-3.85-2.74-8.72-0.68-12.81l17.41-34.69c1.38-2.75,1.78-5.88,1.14-8.88c-0.47-2.18-3.28-2.8-4.62-1.02L30.37,67.28
			c-3.18,4.15-4.71,9.34-4.29,14.55l2.61,32.45L0,122.12v54.84l50.48-31.52c10.25-6.4,17.74-16.41,21-28.05l0,0
			c2.72-9.73,7.89-18.6,15.03-25.76l9.18-9.21C96.99,81.11,96.47,78.89,94.73,78.3z"/>
		<g>
			<path class="st4" d="M47.89,92.73c-1.6-1.06-2.94-2.43-3.99-4.06c-2.66-4.13-2.94-9.42-0.74-13.8l12.38-24.66l1.79,0.9
				L44.95,75.77c-1.88,3.76-1.64,8.29,0.63,11.82c0.9,1.4,2.05,2.57,3.42,3.48L47.89,92.73z"/>
		</g>
	</g>
</g>
</svg>
