<?xml version="1.0" encoding="utf-8"?>
<!-- Generator: Adobe Illustrator 25.0.0, SVG Export Plug-In . SVG Version: 6.00 Build 0)  -->
<svg version="1.1" xmlns="http://www.w3.org/2000/svg" xmlns:xlink="http://www.w3.org/1999/xlink" x="0px" y="0px"
	 viewBox="0 0 300.51 221.27" style="enable-background:new 0 0 300.51 221.27;" xml:space="preserve">
<style type="text/css">
	.st0{fill:#FFC89E;}
	.st1{fill:#D7E4F4;}
	.st2{fill:#FFFFFF;}
	.st3{fill:#070A17;}
	.st4{fill:#FF7E64;}
	.st5{fill:#99CDE0;}
	.st6{fill:#69B4E3;}
	.st7{fill:#C7E8F2;}
	.st8{fill:#2479A6;}
	.st9{fill:none;}
</style>
<g id="Layer_2">
</g>
<g id="_x3C_Layer_x3E_">
	<g>
		<path class="st3" d="M0,220.81l16.06-75.09c3.11-14.53,15.13-25.47,29.9-27.2l86.91-10.15c13.05-1.52,25.15,7.02,28.08,19.82
			l21.2,92.61H0z"/>
		<circle class="st6" cx="230.23" cy="120.03" r="70.27"/>
		<g>
			<g>
				<path class="st3" d="M230.27,69.4c-0.55,0-1-0.45-1-1v-7.38c0-0.55,0.45-1,1-1c0.55,0,1,0.45,1,1v7.38
					C231.27,68.95,230.82,69.4,230.27,69.4z"/>
			</g>
			<g>
				<path class="st3" d="M204.45,76.3c-0.35,0-0.68-0.18-0.87-0.5l-3.69-6.4c-0.28-0.48-0.11-1.09,0.37-1.37
					c0.48-0.28,1.09-0.11,1.37,0.37l3.69,6.4c0.28,0.48,0.11,1.09-0.37,1.37C204.79,76.26,204.62,76.3,204.45,76.3z"/>
			</g>
			<g>
				<path class="st3" d="M185.54,95.18c-0.17,0-0.34-0.04-0.5-0.13l-6.4-3.69c-0.48-0.28-0.64-0.89-0.37-1.37
					c0.28-0.48,0.89-0.64,1.37-0.37l6.4,3.69c0.48,0.28,0.64,0.89,0.37,1.37C186.22,95,185.89,95.18,185.54,95.18z"/>
			</g>
			<g>
				<path class="st3" d="M178.61,120.99h-7.38c-0.55,0-1-0.45-1-1s0.45-1,1-1h7.38c0.55,0,1,0.45,1,1S179.16,120.99,178.61,120.99z"
					/>
			</g>
			<g>
				<path class="st3" d="M179.11,150.5c-0.35,0-0.68-0.18-0.87-0.5c-0.28-0.48-0.11-1.09,0.37-1.37l6.4-3.69
					c0.47-0.28,1.09-0.11,1.37,0.37c0.28,0.48,0.11,1.09-0.37,1.37l-6.4,3.69C179.45,150.46,179.28,150.5,179.11,150.5z"/>
			</g>
			<g>
				<path class="st3" d="M200.7,172.11c-0.17,0-0.34-0.04-0.5-0.13c-0.48-0.28-0.64-0.89-0.37-1.37l3.69-6.39
					c0.28-0.48,0.89-0.64,1.37-0.37c0.48,0.28,0.64,0.89,0.37,1.37l-3.69,6.39C201.38,171.93,201.04,172.11,200.7,172.11z"/>
			</g>
			<g>
				<path class="st3" d="M230.2,180.04c-0.55,0-1-0.45-1-1v-7.38c0-0.55,0.45-1,1-1c0.55,0,1,0.45,1,1v7.38
					C231.2,179.59,230.75,180.04,230.2,180.04z"/>
			</g>
			<g>
				<path class="st3" d="M259.71,172.15c-0.35,0-0.68-0.18-0.87-0.5l-3.69-6.4c-0.28-0.48-0.11-1.09,0.37-1.37
					c0.48-0.28,1.09-0.11,1.37,0.37l3.69,6.4c0.28,0.48,0.11,1.09-0.37,1.37C260.05,172.11,259.88,172.15,259.71,172.15z"/>
			</g>
			<g>
				<path class="st3" d="M281.32,150.56c-0.17,0-0.34-0.04-0.5-0.13l-6.4-3.69c-0.48-0.28-0.64-0.89-0.37-1.37
					c0.28-0.48,0.89-0.64,1.37-0.37l6.4,3.69c0.48,0.28,0.64,0.89,0.37,1.37C282,150.38,281.67,150.56,281.32,150.56z"/>
			</g>
			<g>
				<path class="st3" d="M289.24,121.06h-7.38c-0.55,0-1-0.45-1-1c0-0.55,0.45-1,1-1h7.38c0.55,0,1,0.45,1,1
					C290.24,120.61,289.8,121.06,289.24,121.06z"/>
			</g>
			<g>
				<path class="st3" d="M274.96,95.24c-0.35,0-0.68-0.18-0.87-0.5c-0.28-0.48-0.11-1.09,0.37-1.37l6.4-3.69
					c0.48-0.28,1.09-0.11,1.37,0.37c0.28,0.48,0.11,1.09-0.37,1.37l-6.4,3.69C275.3,95.2,275.13,95.24,274.96,95.24z"/>
			</g>
			<g>
				<path class="st3" d="M256.08,76.34c-0.17,0-0.34-0.04-0.5-0.13c-0.48-0.28-0.64-0.89-0.37-1.37l3.69-6.4
					c0.28-0.48,0.89-0.64,1.37-0.37c0.48,0.28,0.64,0.89,0.37,1.37l-3.69,6.4C256.76,76.16,256.42,76.34,256.08,76.34z"/>
			</g>
		</g>
		<g>
			<path class="st3" d="M230.12,120.82c-0.34,0-0.68-0.18-0.87-0.5c-0.28-0.48-0.11-1.09,0.36-1.37l50.28-29.15
				c0.48-0.28,1.09-0.11,1.37,0.36c0.28,0.48,0.11,1.09-0.36,1.37l-50.28,29.15C230.46,120.78,230.29,120.82,230.12,120.82z"/>
		</g>
		<g>
			<path class="st3" d="M230.12,120.82c-0.22,0-0.44-0.07-0.63-0.22l-34.33-27.76c-0.43-0.35-0.5-0.98-0.15-1.41
				c0.35-0.43,0.98-0.5,1.41-0.15l34.33,27.76c0.43,0.35,0.5,0.98,0.15,1.41C230.7,120.69,230.41,120.82,230.12,120.82z"/>
		</g>
		<g>
			<path class="st4" d="M158.22,161.15l-6.26-28.62c-0.52-2.38,1.09-4.7,3.5-5.04l0,0c3.76-0.53,7.45,1.36,9.21,4.73l4.82,9.22
				L158.22,161.15z"/>
			<path class="st0" d="M189.7,221.27l11.66-26.57c2.45-4.13,2.94-9.13,1.36-13.66l-1.34-3.81l15.9-18.03
				c2.94-3.34,2.62-8.43-0.71-11.37c-1.74-1.53-4.31-1.49-6.01-0.01c2.03-3.28,1.49-7.63-1.5-10.27c-1.74-1.53-4.31-1.49-6.01-0.01
				c2.02-3.25,1.5-7.56-1.43-10.2c-1.91-1.73-4.89-1.53-6.6,0.4l-7.85,8.9l-0.39-1.11l3.48-9.17c1.29-3.39,0.4-7.23-2.24-9.72
				l-1.39-1.31c-1.42-1.34-3.71-1.09-4.8,0.53l-19.78,29.33c-6.37,9.44-6.82,21.69-1.16,31.57l1.5,2.62l-25.89,41.9H189.7z"/>
			<g>
				<path class="st4" d="M183.11,161.33c-0.24,0-0.47-0.08-0.66-0.25c-0.41-0.37-0.45-1-0.09-1.41l19.13-21.7
					c0.37-0.41,1-0.45,1.41-0.09c0.41,0.37,0.45,1,0.09,1.41l-19.13,21.7C183.67,161.22,183.39,161.33,183.11,161.33z"/>
			</g>
			<g>
				<path class="st4" d="M174.74,151.72c-0.24,0-0.47-0.08-0.66-0.25c-0.41-0.37-0.45-1-0.09-1.41l20.33-23.06
					c0.37-0.41,1-0.45,1.41-0.09c0.41,0.37,0.45,1,0.09,1.41l-20.33,23.06C175.29,151.61,175.02,151.72,174.74,151.72z"/>
			</g>
			<g>
				<path class="st4" d="M192.02,169.93c-0.24,0-0.47-0.08-0.66-0.25c-0.41-0.37-0.45-1-0.09-1.41l20.33-23.06
					c0.37-0.41,1-0.45,1.41-0.09c0.41,0.37,0.45,1,0.09,1.41l-20.33,23.06C192.57,169.82,192.3,169.93,192.02,169.93z"/>
			</g>
		</g>
		<g>
			<path class="st2" d="M54.32,220.68c-0.08,0-0.16-0.01-0.23-0.03c-0.54-0.13-0.87-0.67-0.74-1.21l7.47-31.11
				c0.13-0.54,0.67-0.87,1.21-0.74c0.54,0.13,0.87,0.67,0.74,1.21l-7.47,31.11C55.18,220.37,54.77,220.68,54.32,220.68z"/>
		</g>
		<g>
			<path class="st3" d="M114.49,89.73l-15.95-6.7c-18.33-7.7-27.03-29-19.32-47.33l2.66-6.32c9.64-22.95,36.32-33.84,59.27-24.2
				l-0.91,7.05c14.39,6.05,21.21,22.76,15.17,37.15l-11.99,28.54C138.7,89.13,125.69,94.44,114.49,89.73z"/>
			
				<ellipse transform="matrix(0.341 -0.94 0.94 0.341 61.1292 180.0768)" class="st3" cx="159.01" cy="46.44" rx="18.15" ry="18.15"/>
			<path class="st0" d="M72.76,115.87l28.22-58.51l33.91,16.36l-17.73,36.75l5.15-0.63c1.25,2.13,1.94,4.42,1.94,6.82
				c0,11.31-15.22,20.48-33.99,20.48c-18.09,0-32.88-8.52-33.93-19.26L72.76,115.87z"/>
			<polygon class="st4" points="91.64,82.7 116.27,112.33 133.59,76.42 127.17,69.99 111.93,62.64 			"/>
			<path class="st0" d="M76.12,60.5c1.44-5.25,5.51-8.84,10.25-10.03c0.32-0.98,0.67-1.95,1.07-2.92l9.01-21.44
				c2.98-7.08,11.21-10.44,18.29-7.47l32.54,13.67c14.66,6.16,21.62,23.2,15.46,37.86l-4.99,11.88
				c-6.87,16.36-25.88,24.12-42.24,17.25l-8.37-3.52c-8.43-3.54-14.84-9.91-18.64-17.53c-1.99-0.18-4-0.79-5.88-1.89
				C77.16,73.19,74.45,66.58,76.12,60.5z"/>
			<path class="st3" d="M95.25,52.19c-4.96-2.08-10.44-1.12-14.36,2.03c-1.3-14.15,4.89-28.36,16.85-36.93
				c6.2,1.93,11.6,6.08,14.86,12.1c6.31,11.68,2.31,26.27-8.81,34.09C103.18,58.62,100.08,54.22,95.25,52.19z"/>
			<g>
				<path class="st4" d="M94.99,66.96c-0.06,0-0.12-0.01-0.19-0.02c-0.54-0.1-0.9-0.62-0.8-1.17c0.01-0.07,0.88-5.08-2.34-8.08
					c-0.4-0.38-0.43-1.01-0.05-1.41c0.37-0.41,1.01-0.43,1.41-0.05c4.05,3.76,2.99,9.66,2.94,9.91
					C95.88,66.63,95.46,66.96,94.99,66.96z"/>
			</g>
			<path class="st3" d="M131.18,62.25c-0.34,1.86,0.34,3.55,1.52,3.77c1.18,0.22,2.42-1.11,2.77-2.97c0.34-1.86-0.34-3.55-1.52-3.77
				C132.76,59.05,131.52,60.39,131.18,62.25z"/>
			<path class="st3" d="M150.72,69.06c-0.34,1.86,0.34,3.55,1.52,3.77c1.18,0.22,2.42-1.11,2.77-2.97c0.34-1.86-0.34-3.55-1.52-3.77
				C152.31,65.87,151.07,67.2,150.72,69.06z"/>
			<g>
				<path class="st3" d="M138.69,55.22c-0.18,0-0.37-0.05-0.54-0.16c-0.06-0.03-4.53-2.81-8.64-0.88c-0.5,0.24-1.1,0.02-1.33-0.48
					c-0.23-0.5-0.02-1.1,0.48-1.33c5.13-2.41,10.35,0.86,10.57,1c0.46,0.3,0.6,0.92,0.3,1.38
					C139.34,55.06,139.02,55.22,138.69,55.22z"/>
			</g>
			<g>
				<path class="st4" d="M136.17,88.19c-1.24,0-2.46-0.21-3.54-0.76c-1.79-0.92-2.89-2.61-3.28-5.01c-0.09-0.55,0.28-1.06,0.83-1.15
					c0.54-0.09,1.06,0.28,1.15,0.83c0.29,1.77,1.01,2.93,2.22,3.55c3.37,1.74,9.27-1.14,9.33-1.17c0.49-0.24,1.09-0.04,1.34,0.45
					c0.25,0.49,0.04,1.09-0.45,1.34C143.56,86.37,139.82,88.19,136.17,88.19z"/>
			</g>
			<g>
				<path class="st3" d="M147.22,75.99c-0.26,0-0.53-0.1-0.73-0.31c-1.67-1.76-2.47-4.14-2.25-6.7c0.22-2.51,1.4-4.91,3.33-6.74
					c1.93-1.83,4.38-2.89,6.9-2.97c2.6-0.09,4.9,0.83,6.57,2.59c0.38,0.4,0.36,1.03-0.04,1.41c-0.4,0.38-1.03,0.36-1.41-0.04
					c-1.27-1.34-3.06-2.04-5.05-1.97c-2.03,0.07-4.02,0.93-5.59,2.42c-1.57,1.49-2.54,3.43-2.71,5.46
					c-0.17,1.98,0.43,3.81,1.71,5.15c0.38,0.4,0.36,1.03-0.04,1.41C147.72,75.9,147.47,75.99,147.22,75.99z"/>
			</g>
			<circle class="st3" cx="153.7" cy="31.14" r="18.67"/>
			<g>
				<path class="st3" d="M109.04,13.02c-0.04,0-0.08,0-0.13-0.01c-0.55-0.07-0.94-0.57-0.87-1.12c0.66-5.2-4.43-8.74-4.49-8.77
					c-0.46-0.31-0.58-0.93-0.26-1.39c0.31-0.46,0.93-0.58,1.39-0.27c0.25,0.17,6.16,4.25,5.35,10.68
					C109.97,12.65,109.54,13.02,109.04,13.02z"/>
			</g>
			<g>
				<path class="st3" d="M109.89,12.9c-0.32,0-0.63-0.15-0.82-0.43c-3.68-5.34-0.3-11.67-0.16-11.94c0.26-0.48,0.87-0.66,1.35-0.4
					c0.48,0.26,0.66,0.87,0.4,1.35c-0.03,0.05-2.93,5.54,0.05,9.85c0.31,0.45,0.2,1.08-0.26,1.39
					C110.28,12.84,110.08,12.9,109.89,12.9z"/>
			</g>
			<path class="st3" d="M132.3,7.57c-19.07-5.31-39.51,3.91-47.97,22.19c2.94,4.43,7.24,8.11,12.59,10.36
				c13.92,5.85,29.71-0.15,35.27-13.39C134.84,20.42,134.69,13.61,132.3,7.57z"/>
			
				<ellipse transform="matrix(0.4818 -0.8763 0.8763 0.4818 50.4197 129.8754)" class="st3" cx="135.02" cy="22.31" rx="18.15" ry="18.15"/>
		</g>
	</g>
</g>
</svg>
